<svg xmlns="http://www.w3.org/2000/svg" viewBox="0 0 682.25 128.14"><defs><style>.cls-1{fill:#0066cd;}</style></defs><title>Asset 3</title><g id="Layer_2" data-name="Layer 2"><g id="Layer_1-2" data-name="Layer 1"><path class="cls-1" d="M60.71,126.59C25.8,126.59,0,99.07,0,62.78,0,26,25.8,1.55,60.71,1.55H91.16c36.12,0,61.23,24.94,61.23,61.23s-25.63,63.81-61.23,63.81Zm30.45-21.84c23,0,39.39-17.38,39.39-40.94S114.21,23.39,91.16,23.39H60.71c-22.36,0-38.87,16.69-38.87,40.42,0,23.56,16.34,40.94,38.87,40.94Z"/><path class="cls-1" d="M170.11,126.59V104.75h93.73c11.7,0,18.24-6.54,18.24-16.34,0-10.67-6.54-16.17-18.24-16.17H206.4c-23.57,0-38.19-15-38.19-35.6,0-20.13,13.59-35.09,38.53-35.09h89.78V23.39H206.74c-10,0-15.82,5.85-15.82,15.31s6,15.13,15.65,15.13h57.27c25.29,0,38.87,11.87,38.87,36.12,0,21-12.72,36.64-38.87,36.64Z"/><path class="cls-1" d="M322.67,126.59V1.55h21.84v125Z"/><path class="cls-1" d="M387.68,35.09v91.5H366.87V13.07C366.87,5,371.17,0,378.05,0c3.27,0,6,1.2,9.29,4.47L475.57,92V.52h20.82V115.07c0,8.25-4.48,13.07-10.84,13.07-3.61,0-6.88-1.55-10-4.65Z"/><path class="cls-1" d="M514.29,126.59V39.05h78.14v15.3h-63v57h63.1v15.29Zm26.37-38V75.66h48.52V88.54Z"/><path class="cls-1" d="M633.73,126.59V54.35H600.5V39.05h81.75v15.3H649v72.24Z"/></g></g></svg>